<?xml version="1.0" standalone="no"?>
<!DOCTYPE svg PUBLIC "-//W3C//DTD SVG 20010904//EN"
 "http://www.w3.org/TR/2001/REC-SVG-20010904/DTD/svg10.dtd">
<svg version="1.0" xmlns="http://www.w3.org/2000/svg"
 width="5000.000000pt" height="600.000000pt" viewBox="0 0 5000.000000 600.000000"
 preserveAspectRatio="xMidYMid meet">

<g transform="translate(0.000000,600.000000) scale(0.100000,-0.100000)"
fill="#000000" stroke="none">
<path d="M13530 5860 c0 -4 30 -20 67 -35 328 -131 678 -513 926 -1010 111
-223 201 -485 231 -670 9 -55 20 -125 25 -155 5 -34 9 301 10 868 l1 922 -82
0 c-142 0 -847 52 -1140 84 -21 2 -38 1 -38 -4z"/>
<path d="M12655 5830 c-301 -47 -516 -113 -745 -230 -439 -226 -706 -575 -812
-1062 -30 -141 -33 -525 -5 -658 115 -540 461 -929 1247 -1402 69 -41 238
-142 375 -223 405 -240 607 -381 774 -540 295 -281 413 -588 356 -921 -42
-239 -154 -491 -269 -604 -25 -24 -46 -48 -46 -53 0 -21 339 44 509 98 742
236 1130 723 1133 1425 2 439 -157 783 -521 1132 -243 232 -474 390 -1153 786
-179 105 -377 224 -440 263 -509 325 -754 592 -829 905 -28 115 -23 306 11
429 54 199 136 344 269 475 102 102 179 149 279 172 28 7 52 16 52 20 0 12
-52 8 -185 -12z"/>
<path d="M384 5724 c207 -270 372 -1620 353 -2879 -20 -1278 -175 -2392 -359
-2583 l-32 -32 892 0 891 0 4 1763 c3 1189 8 1812 15 1917 50 667 106 1100
187 1429 53 215 98 330 156 396 l31 35 -1086 0 -1087 0 35 -46z"/>
<path d="M7167 5748 c-3 -13 -27 -135 -53 -273 -41 -223 -45 -255 -35 -295 7
-25 95 -310 196 -635 356 -1142 517 -1696 664 -2285 194 -773 271 -1231 271
-1602 0 -223 -25 -332 -93 -405 -18 -20 -18 -23 -4 -29 9 -3 535 -2 1168 3
l1152 8 -71 53 c-285 212 -613 856 -997 1957 -42 121 -283 873 -536 1670 -253
798 -489 1541 -525 1653 l-65 202 -533 0 -534 0 -5 -22z"/>
<path d="M15931 4838 c1 -575 5 -916 10 -888 5 25 16 81 25 125 21 104 138
460 199 600 163 381 397 695 645 865 114 77 334 170 406 170 14 0 24 6 24 14
0 8 3 21 6 30 6 15 -56 16 -655 16 l-661 0 1 -932z"/>
<path d="M17407 4133 c-3 -953 -10 -1736 -16 -1873 -54 -1163 -162 -1796 -337
-1990 l-36 -40 1082 0 1082 0 -45 50 c-143 159 -255 702 -307 1490 -30 457
-32 618 -37 2273 l-5 1727 -688 0 -688 0 -5 -1637z"/>
<path d="M18950 5740 c0 -24 5 -31 28 -36 150 -33 308 -101 421 -181 239 -169
469 -480 626 -848 83 -194 206 -582 225 -710 4 -27 8 367 9 878 l1 927 -655 0
-655 0 0 -30z"/>
<path d="M23115 5739 c215 -256 382 -1589 362 -2894 -20 -1279 -175 -2392
-359 -2583 l-32 -32 1082 0 c595 0 1082 2 1082 4 0 3 -13 20 -30 38 -81 88
-163 392 -224 823 -41 287 -70 597 -107 1135 -8 111 -13 722 -16 1853 l-4
1687 -890 0 -891 0 27 -31z"/>
<path d="M25270 5747 c0 -22 5 -27 33 -31 135 -19 180 -31 252 -66 269 -129
439 -460 515 -1000 56 -396 49 -984 -15 -1363 -77 -448 -245 -760 -474 -881
-78 -41 -202 -76 -268 -76 -43 0 -43 0 -43 -35 0 -27 4 -35 18 -35 105 1 454
23 552 35 734 89 1204 342 1468 790 228 386 285 1037 137 1550 -112 385 -380
696 -760 880 -316 153 -714 236 -1212 252 l-203 6 0 -26z"/>
<path d="M28299 5735 c17 -20 39 -52 50 -73 104 -206 204 -727 260 -1357 40
-444 46 -607 46 -1240 0 -608 -5 -754 -41 -1230 -64 -859 -179 -1441 -310
-1572 -13 -13 -24 -26 -24 -28 0 -3 401 -5 890 -5 l890 0 0 2770 0 2770 -896
0 -896 0 31 -35z"/>
<path d="M30880 5762 c0 -4 33 -15 74 -24 483 -110 913 -656 1150 -1458 49
-167 76 -284 76 -330 0 -16 5 -32 10 -35 7 -4 10 307 10 924 l0 931 -660 0
c-363 0 -660 -3 -660 -8z"/>
<path d="M33435 5748 c175 -124 543 -664 977 -1433 322 -570 456 -834 1278
-2525 l756 -1555 357 -3 357 -2 0 746 0 746 -119 216 c-260 476 -460 864 -595
1156 -442 951 -795 1913 -876 2389 -23 139 -25 212 -6 249 8 15 12 29 8 32 -3
3 -492 6 -1086 6 l-1081 -1 30 -21z"/>
<path d="M36272 5755 c244 -34 408 -111 542 -255 157 -170 241 -411 322 -925
16 -107 33 -165 34 -120 0 38 80 450 110 566 117 465 337 675 770 734 82 11
-39 13 -890 13 -859 0 -973 -2 -888 -13z"/>
<path d="M39135 5748 c175 -124 543 -664 977 -1433 322 -570 456 -834 1278
-2525 l756 -1555 357 -3 357 -2 0 746 0 746 -119 216 c-260 476 -460 864 -595
1156 -442 951 -795 1913 -876 2389 -23 139 -25 212 -6 249 8 15 12 29 8 32 -3
3 -492 6 -1086 6 l-1081 -1 30 -21z"/>
<path d="M41972 5755 c244 -34 408 -111 542 -255 157 -170 241 -411 322 -925
16 -107 33 -165 34 -120 0 38 80 450 110 566 117 465 337 675 770 734 82 11
-39 13 -890 13 -859 0 -973 -2 -888 -13z"/>
<path d="M44410 5765 c0 -2 24 -20 53 -39 216 -137 531 -574 924 -1276 175
-313 284 -522 527 -1007 l216 -433 0 -202 c0 -245 -14 -622 -35 -933 -59 -875
-172 -1452 -315 -1605 -16 -18 -30 -34 -30 -36 0 -2 469 -4 1042 -4 l1042 0
-36 37 c-192 201 -328 1122 -355 2413 l-6 324 -135 286 c-355 754 -579 1283
-717 1695 -140 419 -174 641 -114 743 10 18 19 35 19 38 0 2 -468 4 -1040 4
-572 0 -1040 -2 -1040 -5z"/>
<path d="M47680 5761 c0 -4 33 -11 73 -14 41 -3 107 -17 147 -31 181 -62 279
-184 327 -401 24 -106 20 -364 -6 -545 -19 -123 -79 -425 -97 -482 -3 -11 0
-18 8 -18 8 0 38 59 72 141 167 398 349 696 560 916 174 182 337 291 538 362
97 34 228 61 294 61 23 0 46 5 49 10 4 7 -325 10 -979 10 -542 0 -986 -4 -986
-9z"/>
<path d="M31706 4498 c-3 -7 -12 -56 -20 -108 -84 -492 -374 -872 -767 -1005
-92 -32 -215 -55 -290 -55 -98 0 -74 -15 44 -28 146 -15 239 -42 362 -102 273
-134 481 -385 590 -713 34 -103 75 -283 75 -331 0 -14 5 -26 10 -26 7 0 10
403 10 1190 0 655 -2 1190 -5 1190 -3 0 -7 -6 -9 -12z"/>
<path d="M11077 2178 c7 -126 73 -1765 73 -1808 l0 -40 108 0 c232 0 469 -30
847 -105 378 -75 685 -119 685 -98 0 6 -26 16 -57 23 -174 38 -402 148 -566
271 -451 338 -823 953 -1002 1654 -41 158 -45 170 -68 173 -24 3 -24 2 -20
-70z"/>
<path d="M4250 2065 c0 -37 -37 -202 -76 -344 -48 -172 -113 -340 -199 -516
-235 -480 -567 -799 -923 -888 -48 -12 -88 -22 -89 -23 -2 0 -6 -15 -9 -32
l-6 -32 661 0 661 0 0 930 c0 613 -3 930 -10 930 -5 0 -10 -11 -10 -25z"/>
<path d="M32180 2064 c0 -51 -63 -312 -111 -461 -234 -723 -642 -1217 -1105
-1336 -46 -12 -84 -25 -84 -29 0 -5 297 -8 660 -8 l660 0 0 930 c0 613 -3 930
-10 930 -5 0 -10 -12 -10 -26z"/>
<path d="M5932 1617 c-116 -392 -296 -749 -489 -972 -188 -217 -440 -356 -702
-387 -53 -6 -100 -15 -105 -20 -6 -4 435 -8 980 -7 855 1 979 3 916 14 -173
32 -270 76 -364 164 -109 102 -170 233 -204 439 -21 127 -21 441 0 667 9 94
16 180 16 193 0 48 -16 17 -48 -91z"/>
<path d="M33982 1382 c-87 -488 -159 -699 -294 -860 -128 -152 -333 -249 -569
-268 -43 -4 -79 -11 -79 -15 0 -5 443 -9 985 -9 650 0 985 3 985 10 0 6 -20
10 -45 10 -65 0 -230 34 -309 64 -102 39 -171 81 -249 155 -186 176 -273 398
-356 910 -17 101 -32 185 -33 187 -2 1 -18 -81 -36 -184z"/>
<path d="M39682 1382 c-87 -488 -159 -699 -294 -860 -128 -152 -333 -249 -569
-268 -43 -4 -79 -11 -79 -15 0 -5 443 -9 985 -9 650 0 985 3 985 10 0 6 -20
10 -45 10 -65 0 -230 34 -309 64 -102 39 -171 81 -249 155 -186 176 -273 398
-356 910 -17 101 -32 185 -33 187 -2 1 -18 -81 -36 -184z"/>
</g>
</svg>
